<svg width="112" height="104" viewBox="0 0 112 104" fill="none" xmlns="http://www.w3.org/2000/svg">
<path d="M101.059 9.01462C100.139 13.7831 98.9567 13.3865 98.1817 16.9943C97.4067 20.6021 98.7823 24.974 98.7823 24.974C98.7823 24.974 95.7695 22.2948 95.7308 17.6327C95.6824 12.2935 97.4164 10.8137 98.3754 9.2661C99.3345 7.71852 98.5595 3.47236 97.0192 2.31168C97.0192 2.32135 102.047 3.85925 101.059 9.01462Z" fill="#EB1501"/>
<path d="M101.456 16.8591C101.456 16.8591 101.155 11.578 103.219 9.77896C105.282 7.9799 103.868 5.79395 103.868 5.79395C103.868 5.79395 108.77 7.593 105.805 10.3013C102.831 12.9999 101.456 16.8591 101.456 16.8591Z" fill="#EB1501"/>
<path d="M102.26 7.72824C102.26 7.72824 100.777 4.24619 101.678 3.13387C102.628 1.97319 100.138 3.05176e-05 100.138 3.05176e-05C100.138 3.05176e-05 103.926 1.11235 103.112 3.04682C102.289 4.98129 102.26 7.72824 102.26 7.72824Z" fill="#EB1501"/>
<path d="M0 99.5866C0.571548 101.125 1.77278 102.353 3.07088 103.281L79.9787 103.069C82.8946 103.156 96.6409 103.533 101.688 103.049C107.336 102.508 111.356 98.8128 111.899 96.1046C112.441 93.3963 110.688 89.7498 109.506 87.8637C106.629 83.25 109.67 82.602 110.707 79.8357C111.579 77.9302 111.249 74.9995 109.351 71.5271C107.452 68.0644 108.954 65.6947 109.612 64.8145C109.351 64.9403 105.146 67.0198 104.565 70.0086C104.323 71.2466 104.362 72.1945 104.468 73.0264C104.546 80.0678 100.913 76.8953 101.707 71.8463C101.872 70.7824 102.095 69.8151 102.298 68.8576C102.298 68.8576 106.629 61.5356 106.241 55.0358C105.941 50.1416 103.79 51.8149 103.412 46.5338C103.412 46.5338 101.572 48.2071 102.415 50.4027C103.18 52.4146 103.693 58.3824 100.613 54.3297C100.574 54.2523 100.487 54.1362 100.351 53.9815C100.332 53.9428 100.303 53.9041 100.274 53.8654C100.196 53.759 100.119 53.6526 100.061 53.5462C100.041 53.5172 100.022 53.4882 100.002 53.4689C98.6365 50.9347 101.775 47.3946 103.577 43.0614C105.515 38.4283 101.32 33.4664 102.996 30.2552C104.672 27.0343 101.659 24.4615 101.659 21.7145C101.659 19.1417 102.831 17.8166 102.976 17.6618C96.0888 21.8886 102.744 24.2197 99.2759 29.3654C98.2684 30.8646 98.0456 32.7603 100.438 37.9157C101.659 40.5466 99.1112 44.2221 98.6365 43.6708C98.0456 42.955 97.6194 40.2758 97.6097 40.2758C96.9897 36.2908 94.1126 33.4277 93.8316 33.1569C94.0835 33.6018 96.7475 38.5057 94.626 43.7675C92.4076 49.2904 95.1491 50.9831 97.4741 60.0944C99.9831 69.9409 94.8875 64.563 94.8875 64.563C92.611 61.5646 90.3054 60.6651 90.1117 60.5974C90.3636 60.8489 95.3332 66.0042 92.6885 71.8463C90.4217 76.8373 87.8255 77.8819 88.6973 82.5826C89.4045 86.4129 84.0087 87.4865 85.3843 84.8556C87.8158 80.2226 84.4252 75.9474 84.4252 75.9474C84.4252 75.9474 83.9118 87.1093 77.9734 88.4054C76.0747 88.4828 75.6969 86.9449 78.1962 84.4397C78.1962 84.4397 73.3041 84.8266 73.9435 89.421C74.5635 93.8606 70.4851 95.1567 71.047 92.6225C71.5604 90.2818 70.0783 89.3339 69.1095 88.6956C69.1095 88.6956 69.6326 89.6531 69.4292 90.6881C68.9545 93.1255 67.2108 96.8494 65.0505 96.2207C62.4059 95.4565 64.3337 92.8837 63.9752 91.6166C63.6555 90.5236 62.7837 89.5951 61.1175 88.8116C61.1175 88.8116 61.9603 90.3689 61.0109 91.6166C60.0615 92.874 58.8603 93.435 59.18 95.0019C59.4997 96.5689 59.1703 97.4684 57.5622 97.6715C55.276 97.9617 55.3535 96.8494 54.0263 94.9729C53.0479 93.5898 51.6723 92.7193 49.7251 92.7386C49.7251 92.7386 51.0039 93.4737 51.5754 94.4216C52.3601 95.7177 52.3698 97.4104 50.9942 98.2325C48.892 99.4899 47.4195 95.8918 45.7339 95.3792C45.7339 95.3792 45.9471 97.4007 45.143 98.2035C42.6728 100.651 39.9215 99.2771 40.2122 95.3888C40.3672 93.4253 41.3068 91.6166 41.3068 91.6166C41.3068 91.6166 36.3275 92.5258 35.8916 97.4587C35.5719 101.086 30.4183 98.5033 31.6486 96.1239C31.9779 95.4856 32.2104 94.5957 32.2104 94.5957C31.2029 95.118 29.4495 96.2884 28.4711 98.1358C28.2095 98.5323 27.9674 98.8419 27.7446 99.074C24.8868 100.796 24.5187 93.7349 24.6543 92.1679C24.5768 90.4076 23.3077 89.7595 23.3077 89.7595C23.4337 90.1367 23.114 91.5876 22.3971 92.3711C18.3091 96.7913 20.5372 96.5012 18.5028 97.4104C18.125 97.4394 17.4082 97.4104 16.8269 96.9364C15.5094 95.8531 15.1898 94.8472 17.5922 92.3807C17.2919 92.4581 12.0898 94.0154 13.0876 96.888C14.1532 99.9348 10.7723 100.999 10.3848 99.2384C9.23204 93.9767 2.31528 97.3717 1.93747 94.054C0.765297 95.6306 0.116249 96.6753 2.12153 98.01C4.63055 99.6834 3.57463 100.912 0.939674 100.225C0.590927 100.041 0.28093 99.8188 0 99.5866Z" fill="#EB1501"/>
<path d="M94.7525 24.3647C94.7525 24.3647 94.5491 27.5082 96.4769 29.2686C98.4047 31.029 96.3122 33.1279 96.3122 33.1279C96.6416 31.4642 95.2757 30.1875 94.0066 28.3207C92.7182 26.4636 94.7525 24.3647 94.7525 24.3647Z" fill="#EB1501"/>
<path d="M76.6948 96.0851C78.4773 93.8605 82.2553 91.6262 84.0184 90.7267C83.4372 91.8777 82.73 93.3382 83.3403 94.5279C85.055 97.8648 91.129 89.5466 90.2862 85.3005C89.8696 83.2402 89.5984 82.4761 91.1096 80.7835C91.4583 80.3869 92.1364 79.4197 92.5336 79.1005C92.3592 79.8549 92.1752 80.5707 92.0977 81.2671C92.1461 81.0446 92.1655 81.064 92.1171 81.4799C91.8555 83.8012 96.1761 85.5036 96.1761 78.9844C96.1761 73.5485 95.4689 71.8365 93.8027 66.6715C93.8027 66.6715 96.796 72.9392 97.3192 70.5308C97.8326 68.132 96.6895 66.2169 99.7216 63.8375C102.754 61.4678 103.703 59.9686 104.1 57.6956C104.1 57.6956 105.65 60.4135 101.708 65.2303C97.7648 70.0568 101.756 70.2406 98.8885 75.2412C97.261 78.0655 98.3654 87.0995 104.178 82.7083C104.643 82.1376 105.098 81.5476 105.457 80.9382C108.431 75.9279 105.844 75.6378 106.483 72.3298C106.512 72.1654 106.571 72.001 106.648 71.8365C106.832 72.6974 107.152 73.5582 107.626 74.4191C112.955 84.1494 102.453 82.2053 107.849 90.8427C109.167 92.9513 110.339 95.882 109.981 97.6714C109.641 99.3447 106.522 102.575 101.494 103.059C96.8348 103.504 84.2219 103.194 79.5235 103.059C77.9057 102.817 75.9101 102.217 75.3967 100.738C74.8348 99.1416 75.9973 96.9556 76.6948 96.0851Z" fill="#FA6700"/>
</svg>
