<svg width="112" height="104" viewBox="0 0 112 104" fill="none" xmlns="http://www.w3.org/2000/svg">
<path d="M10.9412 9.01462C11.8615 13.7831 13.0433 13.3865 13.8183 16.9943C14.5933 20.6021 13.2177 24.974 13.2177 24.974C13.2177 24.974 16.2305 22.2948 16.2692 17.6327C16.3176 12.2935 14.5836 10.8137 13.6246 9.2661C12.6655 7.71852 13.4405 3.47236 14.9808 2.31168C14.9808 2.32135 9.95305 3.85925 10.9412 9.01462Z" fill="#EB1501"/>
<path d="M10.5443 16.8591C10.5443 16.8591 10.8446 11.578 8.78116 9.77896C6.71775 7.9799 8.13211 5.79395 8.13211 5.79395C8.13211 5.79395 3.23031 7.593 6.19464 10.3013C9.16865 12.9999 10.5443 16.8591 10.5443 16.8591Z" fill="#EB1501"/>
<path d="M9.74049 7.72824C9.74049 7.72824 11.2227 4.24619 10.3217 3.13387C9.37237 1.97319 11.862 3.05176e-05 11.862 3.05176e-05C11.862 3.05176e-05 8.07427 1.11235 8.88801 3.04682C9.71143 4.98129 9.74049 7.72824 9.74049 7.72824Z" fill="#EB1501"/>
<path d="M112 99.5866C111.428 101.125 110.227 102.353 108.929 103.281L32.0213 103.069C29.1054 103.156 15.3591 103.533 10.3119 103.049C4.66422 102.508 0.643974 98.8128 0.101483 96.1046C-0.441008 93.3963 1.3124 89.7498 2.49426 87.8637C5.3714 83.25 2.32957 82.602 1.29303 79.8357C0.421166 77.9302 0.750535 74.9995 2.64925 71.5271C4.54797 68.0644 3.04644 65.6947 2.3877 64.8145C2.64925 64.9403 6.85356 67.0198 7.4348 70.0086C7.67699 71.2466 7.63824 72.1945 7.53168 73.0264C7.45418 80.0678 11.0869 76.8953 10.2926 71.8463C10.1279 70.7824 9.90508 69.8151 9.70164 68.8576C9.70164 68.8576 5.3714 61.5356 5.75889 55.0358C6.0592 50.1416 8.20979 51.8149 8.5876 46.5338C8.5876 46.5338 10.4282 48.2071 9.58539 50.4027C8.82009 52.4146 8.30666 58.3824 11.3872 54.3297C11.426 54.2523 11.5132 54.1362 11.6488 53.9815C11.6682 53.9428 11.6972 53.9041 11.7263 53.8654C11.8038 53.759 11.8813 53.6526 11.9394 53.5462C11.9588 53.5172 11.9782 53.4882 11.9975 53.4689C13.3635 50.9347 10.2248 47.3946 8.42291 43.0614C6.48544 38.4283 10.6801 33.4664 9.00415 30.2552C7.32824 27.0343 10.341 24.4615 10.341 21.7145C10.341 19.1417 9.16884 17.8166 9.02353 17.6618C15.9112 21.8886 9.25602 24.2197 12.7241 29.3654C13.7316 30.8646 13.9544 32.7603 11.5616 37.9157C10.341 40.5466 12.8888 44.2221 13.3635 43.6708C13.9544 42.955 14.3806 40.2758 14.3903 40.2758C15.0103 36.2908 17.8874 33.4277 18.1684 33.1569C17.9165 33.6018 15.2525 38.5057 17.374 43.7675C19.5924 49.2904 16.8509 50.9831 14.5259 60.0944C12.0169 69.9409 17.1125 64.563 17.1125 64.563C19.389 61.5646 21.6946 60.6651 21.8883 60.5974C21.6364 60.8489 16.6668 66.0042 19.3115 71.8463C21.5783 76.8373 24.1745 77.8819 23.3027 82.5826C22.5955 86.4129 27.9913 87.4865 26.6157 84.8556C24.1842 80.2226 27.5748 75.9474 27.5748 75.9474C27.5748 75.9474 28.0882 87.1093 34.0266 88.4054C35.9253 88.4828 36.3031 86.9449 33.8038 84.4397C33.8038 84.4397 38.6959 84.8266 38.0565 89.421C37.4365 93.8606 41.5149 95.1567 40.953 92.6225C40.4396 90.2818 41.9217 89.3339 42.8905 88.6956C42.8905 88.6956 42.3674 89.6531 42.5708 90.6881C43.0455 93.1255 44.7892 96.8494 46.9495 96.2207C49.5941 95.4565 47.6663 92.8837 48.0248 91.6166C48.3445 90.5236 49.2163 89.5951 50.8825 88.8116C50.8825 88.8116 50.0397 90.3689 50.9891 91.6166C51.9385 92.874 53.1397 93.435 52.82 95.0019C52.5003 96.5689 52.8297 97.4684 54.4378 97.6715C56.724 97.9617 56.6465 96.8494 57.9737 94.9729C58.9521 93.5898 60.3277 92.7193 62.2749 92.7386C62.2749 92.7386 60.9961 93.4737 60.4246 94.4216C59.6399 95.7177 59.6302 97.4104 61.0058 98.2325C63.108 99.4899 64.5805 95.8918 66.2661 95.3792C66.2661 95.3792 66.0529 97.4007 66.857 98.2035C69.3272 100.651 72.0785 99.2771 71.7878 95.3888C71.6328 93.4253 70.6932 91.6166 70.6932 91.6166C70.6932 91.6166 75.6725 92.5258 76.1084 97.4587C76.4281 101.086 81.5817 98.5033 80.3514 96.1239C80.0221 95.4856 79.7896 94.5957 79.7896 94.5957C80.7971 95.118 82.5505 96.2884 83.5289 98.1358C83.7905 98.5323 84.0326 98.8419 84.2554 99.074C87.1132 100.796 87.4813 93.7349 87.3457 92.1679C87.4232 90.4076 88.6923 89.7595 88.6923 89.7595C88.5663 90.1367 88.886 91.5876 89.6029 92.3711C93.6909 96.7913 91.4628 96.5012 93.4972 97.4104C93.875 97.4394 94.5918 97.4104 95.1731 96.9364C96.4906 95.8531 96.8102 94.8472 94.4078 92.3807C94.7081 92.4581 99.9102 94.0154 98.9124 96.888C97.8468 99.9348 101.228 100.999 101.615 99.2384C102.768 93.9767 109.685 97.3717 110.063 94.054C111.235 95.6306 111.884 96.6753 109.878 98.01C107.369 99.6834 108.425 100.912 111.06 100.225C111.409 100.041 111.719 99.8188 112 99.5866Z" fill="#EB1501"/>
<path d="M17.2475 24.3647C17.2475 24.3647 17.4509 27.5082 15.5231 29.2686C13.5953 31.029 15.6878 33.1279 15.6878 33.1279C15.3584 31.4642 16.7243 30.1875 17.9934 28.3207C19.2818 26.4636 17.2475 24.3647 17.2475 24.3647Z" fill="#EB1501"/>
<path d="M35.3052 96.0851C33.5227 93.8605 29.7447 91.6262 27.9816 90.7267C28.5628 91.8777 29.27 93.3382 28.6597 94.5279C26.945 97.8648 20.871 89.5466 21.7138 85.3005C22.1304 83.2402 22.4016 82.4761 20.8904 80.7835C20.5417 80.3869 19.8636 79.4197 19.4664 79.1005C19.6408 79.8549 19.8248 80.5707 19.9023 81.2671C19.8539 81.0446 19.8345 81.064 19.8829 81.4799C20.1445 83.8012 15.8239 85.5036 15.8239 78.9844C15.8239 73.5485 16.5311 71.8365 18.1973 66.6715C18.1973 66.6715 15.204 72.9392 14.6808 70.5308C14.1674 68.132 15.3105 66.2169 12.2784 63.8375C9.24623 61.4678 8.29688 59.9686 7.89969 57.6956C7.89969 57.6956 6.34972 60.4135 10.2925 65.2303C14.2352 70.0568 10.244 70.2406 13.1115 75.2412C14.739 78.0655 13.6346 87.0995 7.8222 82.7083C7.3572 82.1376 6.9019 81.5476 6.54347 80.9382C3.56945 75.9279 6.15597 75.6378 5.51661 72.3298C5.48755 72.1654 5.42942 72.001 5.35192 71.8365C5.16786 72.6974 4.84818 73.5582 4.3735 74.4191C-0.954539 84.1494 9.54654 82.2053 4.15069 90.8427C2.83321 92.9513 1.66104 95.882 2.01948 97.6714C2.35853 99.3447 5.47786 102.575 10.5056 103.059C15.1652 103.504 27.7781 103.194 32.4765 103.059C34.0943 102.817 36.0899 102.217 36.6033 100.738C37.1652 99.1416 36.0027 96.9556 35.3052 96.0851Z" fill="#FA6700"/>
</svg>
